<?xml version="1.0" encoding="utf-8"?>
<!-- Generator: Adobe Illustrator 26.1.0, SVG Export Plug-In . SVG Version: 6.00 Build 0)  -->
<svg version="1.1" id="Layer_1" xmlns="http://www.w3.org/2000/svg" xmlns:xlink="http://www.w3.org/1999/xlink" x="0px" y="0px"
	 viewBox="0 0 75 79" style="enable-background:new 0 0 75 79;" xml:space="preserve">
<style type="text/css">
	.st0{clip-path:url(#SVGID_00000092449798253641604720000002658425007979632575_);}
	.st1{fill:#FFFFFF;}
</style>
<g>
	<g>
		<defs>
			<path id="SVGID_1_" d="M74,17.5C72.9,9,65.5,2.3,56.7,1c-1.5-0.2-7.1-1-20.1-1h-0.1c-13,0-15.8,0.8-17.3,1
				C10.8,2.3,3,8.3,1.1,16.9c-0.9,4.2-1,8.9-0.8,13.2c0.2,6.2,0.3,12.3,0.8,18.5c0.4,4.1,1.1,8.1,2,12.1c1.8,7.4,9.1,13.5,16.2,16
				c7.6,2.6,15.8,3,23.7,1.2c0.9-0.2,1.7-0.4,2.6-0.7c1.9-0.6,4.1-1.3,5.8-2.5c0,0,0,0,0.1-0.1c0,0,0-0.1,0-0.1v-6c0,0,0-0.1,0-0.1
				s0,0,0-0.1c0,0,0,0-0.1,0s-0.1,0-0.1,0c-5,1.2-10.2,1.8-15.4,1.8c-8.9,0-11.3-4.2-12-6c-0.6-1.5-0.9-3.1-1-4.7c0,0,0-0.1,0-0.1
				c0,0,0,0,0-0.1c0,0,0,0,0.1,0s0.1,0,0.1,0c4.9,1.2,10,1.8,15.1,1.8c1.2,0,2.4,0,3.7,0c5.1-0.1,10.5-0.4,15.6-1.4
				c0.1,0,0.3,0,0.4-0.1c7.9-1.5,15.5-6.3,16.3-18.4c0-0.5,0.1-5,0.1-5.5C74.1,34.1,74.7,23.8,74,17.5z"/>
		</defs>
		<clipPath id="SVGID_00000161627731459564185110000017522975296243462309_">
			<use xlink:href="#SVGID_1_"  style="overflow:visible;"/>
		</clipPath>
		<g style="clip-path:url(#SVGID_00000161627731459564185110000017522975296243462309_);">
		</g>
	</g>
</g>
<path class="st1" d="M61.2,27v21.1h-8.4V27.6c0-4.3-1.8-6.5-5.4-6.5c-4,0-6,2.6-6,7.7v11.2h-8.3V28.9c0-5.1-2-7.7-6-7.7
	c-3.6,0-5.4,2.2-5.4,6.5v20.5h-8.4V27c0-4.3,1.1-7.7,3.3-10.3c2.3-2.5,5.2-3.8,8.9-3.8c4.3,0,7.5,1.6,9.7,4.9l2.1,3.5l2.1-3.5
	c2.2-3.3,5.4-4.9,9.7-4.9c3.7,0,6.7,1.3,8.9,3.8C60.2,19.3,61.3,22.7,61.2,27z"/>
</svg>
